<svg width="705.4600097656249px" height="212.03999023437498px" xmlns="http://www.w3.org/2000/svg" viewBox="-102.73000488281247 -31.01999511718749 705.4600097656249 212.03999023437498" style="background: none;" preserveAspectRatio="xMidYMid"><defs><filter id="editing-offset"><feFlood flood-color="#9d8074" flood-opacity="0.5" result="c1"></feFlood><feFlood flood-color="#cfb29a" flood-opacity="0.5" result="c2"></feFlood><feFlood flood-color="#f9f9f9" flood-opacity="0.5" result="c3"></feFlood><feComposite operator="in" in="c1" in2="SourceAlpha" result="text-c1"></feComposite><feComposite operator="in" in="c2" in2="SourceAlpha" result="text-c2"></feComposite><feComposite operator="in" in="c3" in2="SourceAlpha" result="text-c3"></feComposite><feOffset in="text-c1" dx="-10" dy="0" result="text1"></feOffset><feOffset in="text-c2" dx="10" dy="0" result="text2"></feOffset><feOffset in="text-c3" dx="0" dy="0" result="text3"></feOffset><feMerge><feMergeNode in="text1"></feMergeNode><feMergeNode in="text2"></feMergeNode><feMergeNode in="text3"></feMergeNode></feMerge></filter></defs><g filter="url(#editing-offset)"><g transform="translate(1.8967835307121277, 124.13999557495117)"><path d="M88.44 2.40L88.44 2.40L88.44 2.40Q73.92 2.40 73.92-8.88L73.92-8.88L73.92-8.88Q73.92-13.80 76.02-23.34L76.02-23.34L76.02-23.34Q78.12-32.88 78.84-36.72L78.84-36.72L78.84-36.72Q80.52-45.48 80.52-48.24L80.52-48.24L80.52-48.24Q80.52-54.36 75.96-54.36L75.96-54.36L75.96-54.36Q72.96-54.36 70.08-50.22L70.08-50.22L70.08-50.22Q67.20-46.08 65.88-37.80L65.88-37.80L58.44 0L35.04 2.40L41.52-30.24L41.52-30.24Q42.60-35.64 43.56-41.76L43.56-41.76L43.56-41.76Q44.52-47.88 44.52-48.84L44.52-48.84L44.52-48.84Q44.52-54.36 40.44-54.36L40.44-54.36L40.44-54.36Q37.68-54.36 34.68-50.28L34.68-50.28L34.68-50.28Q31.68-46.20 30-37.80L30-37.80L22.68 0L-0.96 2.40L11.64-61.20L31.20-63.60L29.16-51.48L29.16-51.48Q32.28-57.96 38.04-60.78L38.04-60.78L38.04-60.78Q43.80-63.60 52.80-63.60L52.80-63.60L52.80-63.60Q57.96-63.60 61.32-61.08L61.32-61.08L61.32-61.08Q64.68-58.56 65.76-54.48L65.76-54.48L65.76-54.48Q67.80-58.68 73.02-61.14L73.02-61.14L73.02-61.14Q78.24-63.60 84.66-63.60L84.66-63.60L84.66-63.60Q91.08-63.60 94.26-62.22L94.26-62.22L94.26-62.22Q97.44-60.84 99.36-58.56L99.36-58.56L99.36-58.56Q102.60-54.36 102.60-46.68L102.60-46.68L102.60-46.68Q102.60-39.12 99.36-23.40L99.36-23.40L99.36-23.40Q97.68-15.72 97.68-12.90L97.68-12.90L97.68-12.90Q97.68-10.08 99.30-8.40L99.30-8.40L99.30-8.40Q100.92-6.72 103.32-6.48L103.32-6.48L103.32-6.48Q102.12-2.40 97.98 0L97.98 0L97.98 0Q93.84 2.40 88.44 2.40ZM117.78-3.60L117.78-3.60L117.78-3.60Q114.96-6.72 113.70-11.64L113.70-11.64L113.70-11.64Q112.44-16.56 112.44-24.60L112.44-24.60L112.44-24.60Q112.44-32.64 115.20-39.96L115.20-39.96L115.20-39.96Q117.96-47.28 123-52.56L123-52.56L123-52.56Q133.32-63.60 150.36-63.60L150.36-63.60L150.36-63.60Q156.48-63.60 160.92-61.56L160.92-61.56L181.44-63.60L172.56-16.80L172.56-16.80Q172.20-15.36 172.20-12.72L172.20-12.72L172.20-12.72Q172.20-10.08 173.82-8.40L173.82-8.40L173.82-8.40Q175.44-6.72 177.84-6.48L177.84-6.48L177.84-6.48Q176.64-2.40 172.26 0L172.26 0L172.26 0Q167.88 2.40 162.96 2.40L162.96 2.40L162.96 2.40Q158.04 2.40 154.74 0.54L154.74 0.54L154.74 0.54Q151.44-1.32 150.48-4.44L150.48-4.44L150.48-4.44Q148.56-1.44 144.48 0.48L144.48 0.48L144.48 0.48Q140.40 2.40 134.94 2.40L134.94 2.40L134.94 2.40Q129.48 2.40 125.04 0.96L125.04 0.96L125.04 0.96Q120.60-0.48 117.78-3.60ZM143.10-52.32L143.10-52.32L143.10-52.32Q141.72-50.16 140.52-46.50L140.52-46.50L140.52-46.50Q139.32-42.84 137.34-33.06L137.34-33.06L137.34-33.06Q135.36-23.28 135.36-16.32L135.36-16.32L135.36-16.32Q135.36-9.36 136.44-7.32L136.44-7.32L136.44-7.32Q137.52-5.28 139.44-5.28L139.44-5.28L139.44-5.28Q143.28-5.28 146.10-8.94L146.10-8.94L146.10-8.94Q148.92-12.60 150-19.08L150-19.08L156.36-54.24L156.36-54.24Q153.84-56.40 150.90-56.40L150.90-56.40L150.90-56.40Q147.96-56.40 146.22-55.44L146.22-55.44L146.22-55.44Q144.48-54.48 143.10-52.32ZM195.96-50.16L195.96-50.16L195.96-50.16Q200.04-55.92 206.22-59.76L206.22-59.76L206.22-59.76Q212.40-63.60 219.96-63.60L219.96-63.60L219.96-63.60Q227.52-63.60 231.12-61.20L231.12-61.20L254.64-63.60L246.48-17.52L246.48-17.52Q242.28 6 233.40 15.24L233.40 15.24L233.40 15.24Q224.88 24 208.32 24L208.32 24L208.32 24Q195.72 24 188.52 20.04L188.52 20.04L188.52 20.04Q181.32 16.08 181.32 9.48L181.32 9.48L181.32 9.48Q181.32 4.56 185.04 1.74L185.04 1.74L185.04 1.74Q188.76-1.08 194.52-1.08L194.52-1.08L194.52-1.08Q199.56-1.08 203.40 1.20L203.40 1.20L203.40 1.20Q205.68 2.40 206.76 4.08L206.76 4.08L206.76 4.08Q204 6.48 204 10.44L204 10.44L204 10.44Q204 15.60 208.80 15.60L208.80 15.60L208.80 15.60Q216.84 15.60 221.40-3.36L221.40-3.36L221.40-3.36Q222.72-8.52 223.80-13.68L223.80-13.68L223.80-13.68Q218.40-7.08 206.16-7.08L206.16-7.08L206.16-7.08Q197.64-7.08 192.72-11.16L192.72-11.16L192.72-11.16Q187.80-15.24 187.80-24.84L187.80-24.84L187.80-24.84Q187.80-30.84 189.84-37.62L189.84-37.62L189.84-37.62Q191.88-44.40 195.96-50.16ZM211.56-24.48L211.56-24.48L211.56-24.48Q211.56-16.32 215.76-16.32L215.76-16.32L215.76-16.32Q218.64-16.32 221.40-19.44L221.40-19.44L221.40-19.44Q223.56-21.96 224.40-25.68L224.40-25.68L230.52-56.52L230.52-56.52Q229.92-56.64 229.32-56.88L229.32-56.88L229.32-56.88Q228.12-57.36 226.56-57.36L226.56-57.36L226.56-57.36Q219.24-57.36 214.92-45.36L214.92-45.36L214.92-45.36Q211.56-36 211.56-24.48ZM285.48 2.40L285.48 2.40L285.48 2.40Q259.08 2.40 259.08-22.44L259.08-22.44L259.08-22.44Q259.08-40.08 268.80-51.48L268.80-51.48L268.80-51.48Q279.12-63.60 297-63.60L297-63.60L297-63.60Q309.96-63.60 316.56-57.60L316.56-57.60L316.56-57.60Q323.16-51.60 323.16-39L323.16-39L323.16-39Q323.16-19.80 312.84-8.64L312.84-8.64L312.84-8.64Q302.76 2.40 285.48 2.40ZM288.60-49.80L288.60-49.80L288.60-49.80Q287.16-46.56 286.02-41.70L286.02-41.70L286.02-41.70Q284.88-36.84 283.44-29.16L283.44-29.16L283.44-29.16Q282-21.48 282-12L282-12L282-12Q282-8.88 283.02-6.84L283.02-6.84L283.02-6.84Q284.04-4.80 286.80-4.80L286.80-4.80L286.80-4.80Q289.56-4.80 291.30-6.12L291.30-6.12L291.30-6.12Q293.04-7.44 294.36-10.56L294.36-10.56L294.36-10.56Q296.76-16.08 298.68-26.34L298.68-26.34L298.68-26.34Q300.60-36.60 300.78-41.04L300.78-41.04L300.78-41.04Q300.96-45.48 300.96-48.78L300.96-48.78L300.96-48.78Q300.96-52.08 300-54.24L300-54.24L300-54.24Q299.04-56.40 296.34-56.40L296.34-56.40L296.34-56.40Q293.64-56.40 291.84-54.72L291.84-54.72L291.84-54.72Q290.04-53.04 288.60-49.80ZM366.12-42.12L366.12-42.12L366.12-42.12Q367.80-46.56 367.80-50.40L367.80-50.40L367.80-50.40Q367.80-57.48 362.04-57.48L362.04-57.48L362.04-57.48Q359.04-57.48 356.58-54.78L356.58-54.78L356.58-54.78Q354.12-52.08 354.12-48.72L354.12-48.72L354.12-48.72Q354.12-46.32 356.04-44.40L356.04-44.40L356.04-44.40Q358.80-41.76 365.88-37.44L365.88-37.44L365.88-37.44Q372.96-33.12 375.66-29.58L375.66-29.58L375.66-29.58Q378.36-26.04 378.36-21.18L378.36-21.18L378.36-21.18Q378.36-16.32 376.02-11.88L376.02-11.88L376.02-11.88Q373.68-7.44 369.48-4.32L369.48-4.32L369.48-4.32Q360.48 2.40 346.08 2.40L346.08 2.40L346.08 2.40Q338.28 2.40 332.28-1.68L332.28-1.68L332.28-1.68Q326.28-5.64 326.28-10.32L326.28-10.32L326.28-10.32Q326.28-15 329.70-17.76L329.70-17.76L329.70-17.76Q333.12-20.52 338.16-20.52L338.16-20.52L338.16-20.52Q343.20-20.52 346.32-18.60L346.32-18.60L346.32-18.60Q344.76-14.64 344.76-12L344.76-12L344.76-12Q344.76-4.08 351.48-4.08L351.48-4.08L351.48-4.08Q354.36-4.08 356.28-5.88L356.28-5.88L356.28-5.88Q358.20-7.68 358.20-10.80L358.20-10.80L358.20-10.80Q358.20-16.92 347.88-23.40L347.88-23.40L347.88-23.40Q339.48-28.92 337.56-31.08L337.56-31.08L337.56-31.08Q334.32-34.92 334.32-39.72L334.32-39.72L334.32-39.72Q334.32-44.52 336.60-49.08L336.60-49.08L336.60-49.08Q338.88-53.64 343.08-56.88L343.08-56.88L343.08-56.88Q351.84-63.60 367.08-63.60L367.08-63.60L367.08-63.60Q374.88-63.60 379.50-60.48L379.50-60.48L379.50-60.48Q384.12-57.36 384.12-52.08L384.12-52.08L384.12-52.08Q384.12-46.80 380.94-43.80L380.94-43.80L380.94-43.80Q377.76-40.80 372-40.80L372-40.80L372-40.80Q368.04-40.80 366.12-42.12ZM390.48-12L390.48-12L390.48-12Q390.48-15.24 392.16-23.40L392.16-23.40L398.52-55.80L391.44-55.80L391.92-59.40L391.92-59.40Q406.32-63.72 420.24-74.28L420.24-74.28L426-74.28L423.12-61.20L432.48-61.20L431.40-55.80L422.16-55.80L416.04-23.40L416.04-23.40Q414.48-15.96 414.48-13.44L414.48-13.44L414.48-13.44Q414.48-7.68 419.52-6.48L419.52-6.48L419.52-6.48Q418.32-2.40 414 0L414 0L414 0Q409.68 2.40 403.56 2.40L403.56 2.40L403.56 2.40Q397.44 2.40 393.96-1.44L393.96-1.44L393.96-1.44Q390.48-5.28 390.48-12ZM457.56 2.40L457.56 2.40L457.56 2.40Q431.16 2.40 431.16-22.44L431.16-22.44L431.16-22.44Q431.16-40.08 440.88-51.48L440.88-51.48L440.88-51.48Q451.20-63.60 469.08-63.60L469.08-63.60L469.08-63.60Q482.04-63.60 488.64-57.60L488.64-57.60L488.64-57.60Q495.24-51.60 495.24-39L495.24-39L495.24-39Q495.24-19.80 484.92-8.64L484.92-8.64L484.92-8.64Q474.84 2.40 457.56 2.40ZM460.68-49.80L460.68-49.80L460.68-49.80Q459.24-46.56 458.10-41.70L458.10-41.70L458.10-41.70Q456.96-36.84 455.52-29.16L455.52-29.16L455.52-29.16Q454.08-21.48 454.08-12L454.08-12L454.08-12Q454.08-8.88 455.10-6.84L455.10-6.84L455.10-6.84Q456.12-4.80 458.88-4.80L458.88-4.80L458.88-4.80Q461.64-4.80 463.38-6.12L463.38-6.12L463.38-6.12Q465.12-7.44 466.44-10.56L466.44-10.56L466.44-10.56Q468.84-16.08 470.76-26.34L470.76-26.34L470.76-26.34Q472.68-36.60 472.86-41.04L472.86-41.04L472.86-41.04Q473.04-45.48 473.04-48.78L473.04-48.78L473.04-48.78Q473.04-52.08 472.08-54.24L472.08-54.24L472.08-54.24Q471.12-56.40 468.42-56.40L468.42-56.40L468.42-56.40Q465.72-56.40 463.92-54.72L463.92-54.72L463.92-54.72Q462.12-53.04 460.68-49.80Z"></path></g></g><style>text {
  font-size: 64px;
  font-family: Arial Black;
  dominant-baseline: central;
  text-anchor: middle;
}</style></svg>